<?xml version="1.0" encoding="UTF-8" standalone="no"?>
<!DOCTYPE svg PUBLIC "-//W3C//DTD SVG 1.1//EN"
 "http://www.w3.org/Graphics/SVG/1.1/DTD/svg11.dtd">
<!-- Generated by graphviz version 2.38.0 (20140413.2041)
 -->
<!-- Title: %3 Pages: 1 -->
<svg width="704pt" height="170pt"
 viewBox="0.00 0.00 704.11 170.12" xmlns="http://www.w3.org/2000/svg" xmlns:xlink="http://www.w3.org/1999/xlink">
<g id="graph0" class="graph" transform="scale(1 1) rotate(0) translate(4 166.125)">
<title>%3</title>
<polygon fill="white" stroke="none" points="-4,4 -4,-166.125 700.113,-166.125 700.113,4 -4,4"/>
<!-- &#45;1 -->
<g id="node1" class="node"><title>&#45;1</title>
<polygon fill="lightgreen" stroke="black" points="506.213,-95.9117 482.213,-95.9117 482.213,-77.9117 506.213,-77.9117 506.213,-95.9117"/>
<text text-anchor="middle" x="494.213" y="-84.7117" font-family="Times New Roman,serif" font-size="9.00">&#45;1</text>
</g>
<!-- 1 -->
<g id="node11" class="node"><title>1</title>
<ellipse fill="lightblue" stroke="black" cx="486.213" cy="-14.8492" rx="14.7" ry="14.7"/>
<text text-anchor="middle" x="486.213" y="-12.6492" font-family="Times New Roman,serif" font-size="9.00">1</text>
</g>
<!-- &#45;1&#45;&gt;1 -->
<g id="edge1" class="edge"><title>&#45;1&#45;&gt;1</title>
<path fill="none" stroke="green" stroke-width="0.169617" d="M493.296,-77.8746C492.24,-68.6287 490.457,-53.017 488.945,-39.7699"/>
<polygon fill="green" stroke="green" stroke-width="0.169617" points="492.42,-39.358 487.808,-29.8197 485.466,-40.1522 492.42,-39.358"/>
</g>
<!-- 2 -->
<g id="node12" class="node"><title>2</title>
<ellipse fill="lightblue" stroke="black" cx="368.213" cy="-14.8492" rx="14.7" ry="14.7"/>
<text text-anchor="middle" x="368.213" y="-12.6492" font-family="Times New Roman,serif" font-size="9.00">2</text>
</g>
<!-- &#45;1&#45;&gt;2 -->
<g id="edge2" class="edge"><title>&#45;1&#45;&gt;2</title>
<path fill="none" stroke="green" stroke-width="0.236587" d="M486.96,-77.7821C483.135,-73.8083 478.209,-69.1511 473.213,-65.6985 465.937,-60.6694 419.377,-39.1469 390.755,-26.0818"/>
<polygon fill="green" stroke="green" stroke-width="0.236587" points="392.024,-22.814 381.473,-21.8541 389.122,-29.1843 392.024,-22.814"/>
</g>
<!-- 3 -->
<g id="node13" class="node"><title>3</title>
<ellipse fill="lightblue" stroke="black" cx="423.213" cy="-14.8492" rx="14.7" ry="14.7"/>
<text text-anchor="middle" x="423.213" y="-12.6492" font-family="Times New Roman,serif" font-size="9.00">3</text>
</g>
<!-- &#45;1&#45;&gt;3 -->
<g id="edge3" class="edge"><title>&#45;1&#45;&gt;3</title>
<path fill="none" stroke="red" stroke-width="0.12133" d="M486.069,-77.8746C475.128,-67.0781 455.39,-47.6015 440.944,-33.3456"/>
<polygon fill="red" stroke="red" stroke-width="0.12133" points="443.128,-30.5836 433.551,-26.051 438.211,-35.5662 443.128,-30.5836"/>
</g>
<!-- &#45;2 -->
<g id="node2" class="node"><title>&#45;2</title>
<polygon fill="lightgreen" stroke="black" points="296.213,-95.9117 272.213,-95.9117 272.213,-77.9117 296.213,-77.9117 296.213,-95.9117"/>
<text text-anchor="middle" x="284.213" y="-84.7117" font-family="Times New Roman,serif" font-size="9.00">&#45;2</text>
</g>
<!-- 0 -->
<g id="node10" class="node"><title>0</title>
<ellipse fill="lightblue" stroke="black" cx="284.213" cy="-14.8492" rx="14.7" ry="14.7"/>
<text text-anchor="middle" x="284.213" y="-12.6492" font-family="Times New Roman,serif" font-size="9.00">0</text>
</g>
<!-- &#45;2&#45;&gt;0 -->
<g id="edge4" class="edge"><title>&#45;2&#45;&gt;0</title>
<path fill="none" stroke="green" stroke-width="0.15518" d="M284.213,-77.8746C284.213,-68.7202 284.213,-53.3256 284.213,-40.1641"/>
<polygon fill="green" stroke="green" stroke-width="0.15518" points="287.713,-39.8196 284.213,-29.8197 280.713,-39.8197 287.713,-39.8196"/>
</g>
<!-- &#45;2&#45;&gt;1 -->
<g id="edge5" class="edge"><title>&#45;2&#45;&gt;1</title>
<path fill="none" stroke="red" stroke-width="0.512782" d="M290.831,-77.7629C294.63,-73.5846 299.729,-68.7469 305.213,-65.6985 362.121,-34.0679 384.913,-48.6126 447.213,-29.6985 452.408,-28.1213 457.934,-26.2685 463.143,-24.4404"/>
<polygon fill="red" stroke="red" stroke-width="0.512782" points="464.377,-27.7161 472.599,-21.0339 462.005,-21.1304 464.377,-27.7161"/>
</g>
<!-- &#45;2&#45;&gt;2 -->
<g id="edge6" class="edge"><title>&#45;2&#45;&gt;2</title>
<path fill="none" stroke="red" stroke-width="0.104528" d="M292.218,-77.8522C296.066,-74.0717 300.792,-69.5596 305.213,-65.6985 319.382,-53.325 336.109,-40.1526 348.765,-30.4577"/>
<polygon fill="red" stroke="red" stroke-width="0.104528" points="350.951,-33.1918 356.795,-24.354 346.715,-27.619 350.951,-33.1918"/>
</g>
<!-- &#45;2&#45;&gt;3 -->
<g id="edge7" class="edge"><title>&#45;2&#45;&gt;3</title>
<path fill="none" stroke="green" stroke-width="0.229738" d="M291.394,-77.6735C295.2,-73.672 300.132,-69.0229 305.213,-65.6985 340.232,-42.7894 353.773,-46.2345 392.213,-29.6985 394.954,-28.5193 397.824,-27.2648 400.663,-26.0111"/>
<polygon fill="green" stroke="green" stroke-width="0.229738" points="402.265,-29.1293 409.974,-21.8612 399.415,-22.7356 402.265,-29.1293"/>
</g>
<!-- &#45;3 -->
<g id="node3" class="node"><title>&#45;3</title>
<polygon fill="lightgreen" stroke="black" points="464.213,-162.125 440.213,-162.125 440.213,-144.125 464.213,-144.125 464.213,-162.125"/>
<text text-anchor="middle" x="452.213" y="-150.925" font-family="Times New Roman,serif" font-size="9.00">&#45;3</text>
</g>
<!-- &#45;3&#45;&gt;0 -->
<g id="edge8" class="edge"><title>&#45;3&#45;&gt;0</title>
<path fill="none" stroke="green" stroke-width="0.213459" d="M439.973,-151.384C400.115,-148.693 275.233,-137.972 251.213,-108.125 233.573,-86.2052 252.495,-54.0979 268.103,-34.1127"/>
<polygon fill="green" stroke="green" stroke-width="0.213459" points="270.832,-36.3044 274.472,-26.3548 265.422,-31.8624 270.832,-36.3044"/>
</g>
<!-- &#45;3&#45;&gt;1 -->
<g id="edge9" class="edge"><title>&#45;3&#45;&gt;1</title>
<path fill="none" stroke="green" stroke-width="0.104654" stroke-dasharray="1,5" d="M464.3,-151.805C508.222,-150.367 658.315,-142.936 687.213,-108.125 699.257,-93.6164 698.831,-80.5501 687.213,-65.6985 665.589,-38.0557 560.043,-23.5827 511.156,-18.2694"/>
<polygon fill="green" stroke="green" stroke-width="0.104654" points="511.407,-14.7766 501.097,-17.2193 510.68,-21.7388 511.407,-14.7766"/>
</g>
<!-- &#45;3&#45;&gt;2 -->
<g id="edge10" class="edge"><title>&#45;3&#45;&gt;2</title>
<path fill="none" stroke="red" stroke-width="0.13617" d="M440.165,-151.218C402.093,-148.08 285.575,-136.291 263.213,-108.125 251.489,-93.3571 253.137,-81.6366 263.213,-65.6985 280.763,-37.9392 318.436,-25.328 343.553,-19.8237"/>
<polygon fill="red" stroke="red" stroke-width="0.13617" points="344.317,-23.2406 353.453,-17.8763 342.966,-16.3722 344.317,-23.2406"/>
</g>
<!-- 71 -->
<g id="node14" class="node"><title>71</title>
<ellipse fill="white" stroke="black" cx="660.213" cy="-86.9117" rx="18.2703" ry="18.2703"/>
<text text-anchor="middle" x="660.213" y="-84.7117" font-family="Times New Roman,serif" font-size="9.00">71</text>
</g>
<!-- &#45;3&#45;&gt;71 -->
<g id="edge34" class="edge"><title>&#45;3&#45;&gt;71</title>
<path fill="none" stroke="green" stroke-width="0.659888" d="M464.594,-150.417C493.954,-146.075 569.718,-133.145 628.213,-108.125 631.14,-106.873 634.104,-105.372 636.988,-103.759"/>
<polygon fill="green" stroke="green" stroke-width="0.659888" points="639.059,-106.596 645.777,-98.4028 635.417,-100.618 639.059,-106.596"/>
</g>
<!-- &#45;4 -->
<g id="node4" class="node"><title>&#45;4</title>
<polygon fill="lightgreen" stroke="black" points="338.213,-95.9117 314.213,-95.9117 314.213,-77.9117 338.213,-77.9117 338.213,-95.9117"/>
<text text-anchor="middle" x="326.213" y="-84.7117" font-family="Times New Roman,serif" font-size="9.00">&#45;4</text>
</g>
<!-- &#45;4&#45;&gt;0 -->
<g id="edge11" class="edge"><title>&#45;4&#45;&gt;0</title>
<path fill="none" stroke="green" stroke-width="0.116286" d="M321.395,-77.8746C315.443,-67.9452 305.09,-50.6741 296.817,-36.8744"/>
<polygon fill="green" stroke="green" stroke-width="0.116286" points="299.646,-34.7856 291.502,-28.0082 293.642,-38.3847 299.646,-34.7856"/>
</g>
<!-- &#45;4&#45;&gt;1 -->
<g id="edge12" class="edge"><title>&#45;4&#45;&gt;1</title>
<path fill="none" stroke="red" stroke-width="0.176775" d="M333.328,-77.5695C337.117,-73.5414 342.053,-68.9 347.213,-65.6985 348.501,-64.8998 423.731,-38.081 462.961,-24.1189"/>
<polygon fill="red" stroke="red" stroke-width="0.176775" points="464.29,-27.3614 472.538,-20.7116 461.943,-20.7664 464.29,-27.3614"/>
</g>
<!-- &#45;4&#45;&gt;2 -->
<g id="edge13" class="edge"><title>&#45;4&#45;&gt;2</title>
<path fill="none" stroke="red" stroke-width="0.513137" d="M331.031,-77.8746C336.983,-67.9452 347.337,-50.6741 355.609,-36.8744"/>
<polygon fill="red" stroke="red" stroke-width="0.513137" points="358.785,-38.3847 360.924,-28.0082 352.781,-34.7856 358.785,-38.3847"/>
</g>
<!-- &#45;4&#45;&gt;3 -->
<g id="edge14" class="edge"><title>&#45;4&#45;&gt;3</title>
<path fill="none" stroke="green" stroke-width="0.159969" d="M334.069,-77.6726C337.883,-73.8528 342.625,-69.3593 347.213,-65.6985 364.68,-51.7627 386.078,-37.9911 401.714,-28.4663"/>
<polygon fill="green" stroke="green" stroke-width="0.159969" points="403.845,-31.2689 410.617,-23.121 400.242,-25.2674 403.845,-31.2689"/>
</g>
<!-- &#45;5 -->
<g id="node5" class="node"><title>&#45;5</title>
<polygon fill="lightgreen" stroke="black" points="180.213,-162.125 156.213,-162.125 156.213,-144.125 180.213,-144.125 180.213,-162.125"/>
<text text-anchor="middle" x="168.213" y="-150.925" font-family="Times New Roman,serif" font-size="9.00">&#45;5</text>
</g>
<!-- &#45;5&#45;&gt;0 -->
<g id="edge15" class="edge"><title>&#45;5&#45;&gt;0</title>
<path fill="none" stroke="red" stroke-width="0.231099" stroke-dasharray="1,5" d="M163.347,-143.902C154.333,-127.484 137.42,-90.1229 154.213,-65.6985 177.753,-31.4609 228.291,-20.7267 258.958,-17.369"/>
<polygon fill="red" stroke="red" stroke-width="0.231099" points="259.627,-20.8229 269.271,-16.4359 258.996,-13.8514 259.627,-20.8229"/>
</g>
<!-- &#45;5&#45;&gt;1 -->
<g id="edge16" class="edge"><title>&#45;5&#45;&gt;1</title>
<path fill="none" stroke="green" stroke-width="0.403293" d="M180.325,-151.754C244.943,-149.655 547.161,-138.267 574.213,-108.125 586.808,-94.0916 583.708,-81.9896 574.213,-65.6985 560.598,-42.3388 531.524,-29.0452 510.513,-22.1598"/>
<polygon fill="green" stroke="green" stroke-width="0.403293" points="511.252,-18.7273 500.668,-19.2011 509.237,-25.4312 511.252,-18.7273"/>
</g>
<!-- &#45;5&#45;&gt;2 -->
<g id="edge17" class="edge"><title>&#45;5&#45;&gt;2</title>
<path fill="none" stroke="green" stroke-width="0.131054" d="M174.224,-143.925C186.831,-127.218 217.657,-88.8624 251.213,-65.6985 280.627,-45.3941 319.623,-30.8362 344.323,-22.8759"/>
<polygon fill="green" stroke="green" stroke-width="0.131054" points="345.458,-26.1882 353.963,-19.8708 343.375,-19.5053 345.458,-26.1882"/>
</g>
<!-- &#45;5&#45;&gt;3 -->
<g id="edge18" class="edge"><title>&#45;5&#45;&gt;3</title>
<path fill="none" stroke="red" stroke-width="0.203627" d="M180.23,-151.698C243.008,-149.346 531.405,-137.017 557.213,-108.125 569.775,-94.0622 567.974,-81.1828 557.213,-65.6985 555.562,-63.323 485.222,-37.9602 447.134,-24.3581"/>
<polygon fill="red" stroke="red" stroke-width="0.203627" points="447.925,-20.9243 437.33,-20.8623 445.574,-27.5177 447.925,-20.9243"/>
</g>
<!-- 231 -->
<g id="node15" class="node"><title>231</title>
<ellipse fill="white" stroke="black" cx="21.2132" cy="-86.9117" rx="21.4286" ry="21.4286"/>
<text text-anchor="middle" x="21.2132" y="-84.7117" font-family="Times New Roman,serif" font-size="9.00">231</text>
</g>
<!-- &#45;5&#45;&gt;231 -->
<g id="edge38" class="edge"><title>&#45;5&#45;&gt;231</title>
<path fill="none" stroke="green" stroke-width="0.321852" d="M156.2,-148.629C134.556,-142.11 87.8564,-127.03 51.2132,-108.125 49.6784,-107.333 48.1271,-106.478 46.5806,-105.583"/>
<polygon fill="green" stroke="green" stroke-width="0.321852" points="48.2586,-102.504 37.924,-100.17 44.5477,-108.439 48.2586,-102.504"/>
</g>
<!-- 206 -->
<g id="node16" class="node"><title>206</title>
<ellipse fill="white" stroke="black" cx="81.2132" cy="-86.9117" rx="21.4286" ry="21.4286"/>
<text text-anchor="middle" x="81.2132" y="-84.7117" font-family="Times New Roman,serif" font-size="9.00">206</text>
</g>
<!-- &#45;5&#45;&gt;206 -->
<g id="edge36" class="edge"><title>&#45;5&#45;&gt;206</title>
<path fill="none" stroke="red" stroke-width="0.213265" d="M157.195,-143.992C144.501,-134.624 123.235,-118.927 106.424,-106.52"/>
<polygon fill="red" stroke="red" stroke-width="0.213265" points="108.233,-103.504 98.1086,-100.382 104.076,-109.136 108.233,-103.504"/>
</g>
<!-- &#45;6 -->
<g id="node6" class="node"><title>&#45;6</title>
<polygon fill="lightgreen" stroke="black" points="380.213,-95.9117 356.213,-95.9117 356.213,-77.9117 380.213,-77.9117 380.213,-95.9117"/>
<text text-anchor="middle" x="368.213" y="-84.7117" font-family="Times New Roman,serif" font-size="9.00">&#45;6</text>
</g>
<!-- &#45;6&#45;&gt;0 -->
<g id="edge19" class="edge"><title>&#45;6&#45;&gt;0</title>
<path fill="none" stroke="green" stroke-width="0.117376" stroke-dasharray="1,5" d="M360.208,-77.8522C356.361,-74.0717 351.635,-69.5596 347.213,-65.6985 333.044,-53.325 316.318,-40.1526 303.662,-30.4577"/>
<polygon fill="green" stroke="green" stroke-width="0.117376" points="305.711,-27.619 295.632,-24.354 301.475,-33.1918 305.711,-27.619"/>
</g>
<!-- &#45;6&#45;&gt;1 -->
<g id="edge20" class="edge"><title>&#45;6&#45;&gt;1</title>
<path fill="none" stroke="red" stroke-width="0.425049" d="M375.513,-77.8483C379.35,-73.8913 384.273,-69.2293 389.213,-65.6985 412.802,-48.8403 442.877,-34.3141 463.239,-25.3618"/>
<polygon fill="red" stroke="red" stroke-width="0.425049" points="464.844,-28.4816 472.649,-21.3173 462.08,-22.0504 464.844,-28.4816"/>
</g>
<!-- &#45;6&#45;&gt;2 -->
<g id="edge21" class="edge"><title>&#45;6&#45;&gt;2</title>
<path fill="none" stroke="green" stroke-width="0.584096" d="M368.213,-77.8746C368.213,-68.7202 368.213,-53.3256 368.213,-40.1641"/>
<polygon fill="green" stroke="green" stroke-width="0.584096" points="371.713,-39.8196 368.213,-29.8197 364.713,-39.8197 371.713,-39.8196"/>
</g>
<!-- &#45;6&#45;&gt;3 -->
<g id="edge22" class="edge"><title>&#45;6&#45;&gt;3</title>
<path fill="none" stroke="green" stroke-width="0.563272" d="M374.522,-77.8746C382.654,-67.5161 397.058,-49.1677 408.097,-35.1057"/>
<polygon fill="green" stroke="green" stroke-width="0.563272" points="411.027,-37.0409 414.449,-27.0138 405.521,-32.7185 411.027,-37.0409"/>
</g>
<!-- &#45;7 -->
<g id="node7" class="node"><title>&#45;7</title>
<polygon fill="lightgreen" stroke="black" points="548.213,-95.9117 524.213,-95.9117 524.213,-77.9117 548.213,-77.9117 548.213,-95.9117"/>
<text text-anchor="middle" x="536.213" y="-84.7117" font-family="Times New Roman,serif" font-size="9.00">&#45;7</text>
</g>
<!-- &#45;7&#45;&gt;1 -->
<g id="edge23" class="edge"><title>&#45;7&#45;&gt;1</title>
<path fill="none" stroke="green" stroke-width="0.101154" d="M530.478,-77.8746C523.239,-67.7318 510.534,-49.9283 500.586,-35.9895"/>
<polygon fill="green" stroke="green" stroke-width="0.101154" points="503.191,-33.6138 494.533,-27.5071 497.493,-37.6801 503.191,-33.6138"/>
</g>
<!-- &#45;7&#45;&gt;2 -->
<g id="edge24" class="edge"><title>&#45;7&#45;&gt;2</title>
<path fill="none" stroke="red" stroke-width="0.438993" stroke-dasharray="1,5" d="M529.53,-77.8772C525.711,-73.7323 520.616,-68.8902 515.213,-65.6985 468.737,-38.241 449.724,-48.7417 399.213,-29.6985 396.421,-28.6458 393.521,-27.4678 390.664,-26.2553"/>
<polygon fill="red" stroke="red" stroke-width="0.438993" points="391.905,-22.9768 381.344,-22.1318 389.073,-29.3783 391.905,-22.9768"/>
</g>
<!-- &#45;7&#45;&gt;3 -->
<g id="edge25" class="edge"><title>&#45;7&#45;&gt;3</title>
<path fill="none" stroke="red" stroke-width="0.461262" d="M528.88,-77.8938C525.035,-73.9484 520.115,-69.283 515.213,-65.6985 493.112,-49.5353 465.143,-35.1245 445.878,-26.0057"/>
<polygon fill="red" stroke="red" stroke-width="0.461262" points="447.219,-22.7694 436.675,-21.7382 444.275,-29.12 447.219,-22.7694"/>
</g>
<!-- &#45;8 -->
<g id="node8" class="node"><title>&#45;8</title>
<polygon fill="lightgreen" stroke="black" points="422.213,-95.9117 398.213,-95.9117 398.213,-77.9117 422.213,-77.9117 422.213,-95.9117"/>
<text text-anchor="middle" x="410.213" y="-84.7117" font-family="Times New Roman,serif" font-size="9.00">&#45;8</text>
</g>
<!-- &#45;8&#45;&gt;0 -->
<g id="edge26" class="edge"><title>&#45;8&#45;&gt;0</title>
<path fill="none" stroke="green" stroke-width="0.405629" d="M402.96,-77.7821C399.135,-73.8083 394.209,-69.1511 389.213,-65.6985 363.132,-47.6716 329.514,-32.9954 307.434,-24.3472"/>
<polygon fill="green" stroke="green" stroke-width="0.405629" points="308.479,-20.9996 297.888,-20.7025 305.982,-27.5392 308.479,-20.9996"/>
</g>
<!-- &#45;8&#45;&gt;1 -->
<g id="edge27" class="edge"><title>&#45;8&#45;&gt;1</title>
<path fill="none" stroke="red" stroke-width="0.868301" d="M418.74,-77.5922C422.534,-73.9197 427.071,-69.5671 431.213,-65.6985 443.371,-54.3426 457.253,-41.7634 468.029,-32.0824"/>
<polygon fill="red" stroke="red" stroke-width="0.868301" points="470.472,-34.5927 475.584,-25.3125 465.8,-29.3796 470.472,-34.5927"/>
</g>
<!-- &#45;8&#45;&gt;2 -->
<g id="edge28" class="edge"><title>&#45;8&#45;&gt;2</title>
<path fill="none" stroke="green" stroke-width="0.529786" d="M405.395,-77.8746C399.443,-67.9452 389.09,-50.6741 380.817,-36.8744"/>
<polygon fill="green" stroke="green" stroke-width="0.529786" points="383.646,-34.7856 375.502,-28.0082 377.642,-38.3847 383.646,-34.7856"/>
</g>
<!-- &#45;8&#45;&gt;3 -->
<g id="edge29" class="edge"><title>&#45;8&#45;&gt;3</title>
<path fill="none" stroke="green" stroke-width="0.154185" d="M411.704,-77.8746C413.431,-68.572 416.352,-52.8252 418.82,-39.5264"/>
<polygon fill="green" stroke="green" stroke-width="0.154185" points="422.287,-40.0263 420.67,-29.5556 415.404,-38.7492 422.287,-40.0263"/>
</g>
<!-- &#45;9 -->
<g id="node9" class="node"><title>&#45;9</title>
<polygon fill="lightgreen" stroke="black" points="464.213,-95.9117 440.213,-95.9117 440.213,-77.9117 464.213,-77.9117 464.213,-95.9117"/>
<text text-anchor="middle" x="452.213" y="-84.7117" font-family="Times New Roman,serif" font-size="9.00">&#45;9</text>
</g>
<!-- &#45;9&#45;&gt;0 -->
<g id="edge30" class="edge"><title>&#45;9&#45;&gt;0</title>
<path fill="none" stroke="green" stroke-width="0.425807" d="M445.122,-77.5313C441.339,-73.4936 436.401,-68.855 431.213,-65.6985 391.846,-41.7449 339.482,-27.55 309.049,-20.7644"/>
<polygon fill="green" stroke="green" stroke-width="0.425807" points="309.405,-17.2614 298.894,-18.5953 307.943,-24.107 309.405,-17.2614"/>
</g>
<!-- &#45;9&#45;&gt;1 -->
<g id="edge31" class="edge"><title>&#45;9&#45;&gt;1</title>
<path fill="none" stroke="red" stroke-width="0.439322" d="M456.113,-77.8746C460.83,-68.1564 468.958,-51.4054 475.581,-37.7594"/>
<polygon fill="red" stroke="red" stroke-width="0.439322" points="478.849,-39.0414 480.066,-28.5167 472.551,-35.9853 478.849,-39.0414"/>
</g>
<!-- &#45;9&#45;&gt;2 -->
<g id="edge32" class="edge"><title>&#45;9&#45;&gt;2</title>
<path fill="none" stroke="green" stroke-width="0.47589" d="M444.208,-77.8522C440.361,-74.0717 435.635,-69.5596 431.213,-65.6985 417.044,-53.325 400.318,-40.1526 387.662,-30.4577"/>
<polygon fill="green" stroke="green" stroke-width="0.47589" points="389.711,-27.619 379.632,-24.354 385.475,-33.1918 389.711,-27.619"/>
</g>
<!-- &#45;9&#45;&gt;3 -->
<g id="edge33" class="edge"><title>&#45;9&#45;&gt;3</title>
<path fill="none" stroke="red" stroke-width="0.326885" d="M448.887,-77.8746C444.927,-68.308 438.146,-51.9264 432.548,-38.4004"/>
<polygon fill="red" stroke="red" stroke-width="0.326885" points="435.621,-36.6749 428.563,-28.7738 429.154,-39.3521 435.621,-36.6749"/>
</g>
<!-- 71&#45;&gt;1 -->
<g id="edge35" class="edge"><title>71&#45;&gt;1</title>
<path fill="none" stroke="red" stroke-width="0.257179" d="M645.316,-75.5212C640.059,-72.1217 634.01,-68.5024 628.213,-65.6985 588.377,-46.4313 539.099,-30.8394 510.308,-22.4927"/>
<polygon fill="red" stroke="red" stroke-width="0.257179" points="510.915,-19.0266 500.339,-19.6559 508.999,-25.7593 510.915,-19.0266"/>
</g>
<!-- 231&#45;&gt;0 -->
<g id="edge39" class="edge"><title>231&#45;&gt;0</title>
<path fill="none" stroke="red" stroke-width="0.270614" d="M37.6985,-73.1729C41.9255,-70.3743 46.5892,-67.6635 51.2132,-65.6985 123.163,-35.1228 215.861,-22.524 259.463,-18.0231"/>
<polygon fill="red" stroke="red" stroke-width="0.270614" points="259.836,-21.5034 269.448,-17.0472 259.155,-14.5366 259.836,-21.5034"/>
</g>
<!-- 206&#45;&gt;0 -->
<g id="edge37" class="edge"><title>206&#45;&gt;0</title>
<path fill="none" stroke="red" stroke-width="0.281911" d="M98.959,-74.5835C104.363,-71.432 110.412,-68.1931 116.213,-65.6985 165.43,-44.5359 226.429,-28.9007 259.713,-21.202"/>
<polygon fill="red" stroke="red" stroke-width="0.281911" points="260.901,-24.5215 269.881,-18.8988 259.355,-17.6945 260.901,-24.5215"/>
</g>
</g>
</svg>
